<?xml version="1.0" encoding="UTF-8"?>
<svg id="Layer_1" xmlns="http://www.w3.org/2000/svg" xmlns:xlink="http://www.w3.org/1999/xlink" version="1.1" viewBox="0 0 111.3 40.31">
  <!-- Generator: Adobe Illustrator 30.0.0, SVG Export Plug-In . SVG Version: 2.1.1 Build 123)  -->
  <defs>
    <style>
      .st0 {
        fill: none;
      }

      .st1 {
        isolation: isolate;
      }

      .st2 {
        fill: #a6a6a6;
      }

      .st3 {
        fill: #3e88a6;
      }

      .st4 {
        clip-path: url(#clippath);
      }
    </style>
    <clipPath id="clippath">
      <polygon class="st0" points="112.6 31.04 41.34 31.04 41.56 14.75 112.82 14.75 112.6 31.04"/>
    </clipPath>
  </defs>
  <path d="M26.56,26.56h5.9V8.85h-5.9v17.71ZM35.41,5.9h14.75V0h-14.75v5.9ZM26.56,0h5.9v5.9h-5.9V0ZM17.71,26.56h5.9V0h-5.9v26.56ZM8.85,20.66h5.9V0h-5.9v20.66ZM0,26.56h5.9V0H0v26.56ZM35.41,26.56h5.9V8.85h-5.9v17.71Z"/>
  <g class="st1">
    <g class="st1">
      <g class="st1">
        <path d="M94.43,38.29v-9.89h1.45v8.47h2.86v1.42h-4.31Z"/>
        <path d="M99.02,38.29l2.25-9.89h1.2l2.25,9.89h-1.45l-.42-2.12h-1.97l-.42,2.12h-1.45ZM102.59,34.83l-.71-3.58h-.03l-.71,3.58h1.45Z"/>
        <path d="M105.44,38.29v-9.89h2.11c.46,0,.86.07,1.18.21.33.14.59.32.8.55.21.23.36.5.45.8s.13.61.13.94v.36c0,.27-.02.5-.06.68-.04.19-.11.35-.19.49-.16.26-.41.48-.74.67.34.16.59.39.75.7.16.31.24.72.24,1.25v.56c0,.87-.21,1.54-.64,2s-1.12.69-2.06.69h-1.97ZM106.88,29.73v2.72h.65c.48,0,.8-.12.97-.35.17-.24.25-.58.25-1.03s-.09-.78-.28-1c-.18-.22-.52-.33-1-.33h-.6ZM106.88,33.71v3.17h.62c.29,0,.52-.04.69-.12.17-.08.29-.2.38-.35.08-.15.14-.32.16-.53.02-.2.03-.43.03-.67s-.01-.47-.04-.65-.08-.34-.17-.47c-.09-.13-.22-.22-.38-.28-.16-.06-.37-.09-.64-.09h-.64Z"/>
      </g>
    </g>
  </g>
  <g class="st1">
    <g class="st1">
      <g class="st1">
        <path d="M.01,32.66l.97-4.13h.52l.97,4.13h-.62l-.18-.89h-.85l-.18.89H.01ZM1.55,31.22l-.3-1.5h-.01l-.3,1.5h.62Z"/>
        <path d="M2.77,32.66v-4.13h1.85v.56h-1.23v1.21h1.07v.56h-1.07v1.21h1.23v.59h-1.85Z"/>
        <path d="M5.02,32.66v-4.13h1c.73,0,1.1.4,1.1,1.21,0,.24-.04.45-.12.62s-.22.31-.42.41l.67,1.88h-.66l-.58-1.76h-.37v1.76h-.62ZM5.65,29.09v1.29h.35c.11,0,.2-.01.26-.04.06-.03.12-.07.15-.12.03-.05.06-.12.07-.2s.02-.17.02-.28,0-.2-.02-.28c-.01-.08-.04-.15-.07-.21-.08-.11-.22-.16-.44-.16h-.32Z"/>
        <path d="M7.64,32.66v-4.13h.62v4.13h-.62Z"/>
        <path d="M8.58,32.66l.97-4.13h.52l.97,4.13h-.62l-.18-.89h-.85l-.18.89h-.62ZM10.12,31.22l-.3-1.5h-.01l-.3,1.5h.62Z"/>
        <path d="M11.34,32.66v-4.13h.62v3.54h1.23v.59h-1.85Z"/>
        <path d="M13.57,31.35v-.59h1.83v.59h-1.83Z"/>
        <path d="M17.97,28.53v3.2c0,.13-.03.26-.08.37s-.12.22-.22.3c-.09.09-.2.16-.32.21-.12.05-.25.08-.39.08s-.27-.03-.39-.08c-.12-.05-.23-.12-.32-.21-.09-.09-.17-.19-.22-.3s-.08-.24-.08-.37v-3.2h.62v3.14c0,.15.04.26.11.33.07.07.16.1.27.1s.2-.04.27-.1.11-.18.11-.33v-3.14h.62Z"/>
        <path d="M18.53,32.66v-4.13h.6l.94,2.49h.01v-2.49h.62v4.13h-.58l-.95-2.48h-.01v2.48h-.62Z"/>
        <path d="M21.26,32.66v-4.13h.92c.36,0,.63.09.81.28s.28.45.28.79v1.93c0,.39-.1.67-.3.86-.2.18-.48.28-.85.28h-.86ZM21.88,29.09v3.02h.29c.17,0,.3-.04.37-.12s.11-.21.11-.39v-1.99c0-.16-.03-.29-.1-.38-.07-.09-.19-.13-.38-.13h-.29Z"/>
        <path d="M23.85,32.66v-4.13h1.85v.56h-1.23v1.21h1.07v.56h-1.07v1.21h1.23v.59h-1.85Z"/>
        <path d="M26.11,32.66v-4.13h1c.73,0,1.1.4,1.1,1.21,0,.24-.04.45-.12.62s-.22.31-.42.41l.67,1.88h-.66l-.58-1.76h-.37v1.76h-.62ZM26.73,29.09v1.29h.35c.11,0,.2-.01.26-.04.06-.03.12-.07.15-.12.03-.05.06-.12.07-.2s.02-.17.02-.28,0-.2-.02-.28c-.01-.08-.04-.15-.07-.21-.08-.11-.22-.16-.44-.16h-.32Z"/>
        <path d="M31.92,28.53l-.65,4.13h-.58l-.48-2.68h-.01l-.47,2.68h-.58l-.65-4.13h.66l.31,2.62h.01l.49-2.62h.48l.51,2.68h.01l.3-2.68h.66Z"/>
        <path d="M31.85,32.66l.97-4.13h.52l.97,4.13h-.62l-.18-.89h-.85l-.18.89h-.62ZM33.38,31.22l-.3-1.5h-.01l-.3,1.5h.62Z"/>
        <path d="M34.68,32.66v-3.57h-.72v-.56h2.06v.56h-.72v3.57h-.62Z"/>
        <path d="M36.3,32.66v-4.13h1.85v.56h-1.23v1.21h1.07v.56h-1.07v1.21h1.23v.59h-1.85Z"/>
        <path d="M38.55,32.66v-4.13h1c.73,0,1.1.4,1.1,1.21,0,.24-.04.45-.12.62s-.22.31-.42.41l.67,1.88h-.66l-.58-1.76h-.37v1.76h-.62ZM39.17,29.09v1.29h.35c.11,0,.2-.01.26-.04.07-.03.12-.07.15-.12.03-.05.05-.12.07-.2.01-.08.02-.17.02-.28s0-.2-.02-.28c-.01-.08-.04-.15-.07-.21-.08-.11-.22-.16-.44-.16h-.32Z"/>
        <path d="M42.28,32.66v-4.13h1c.73,0,1.1.4,1.1,1.21,0,.24-.04.45-.12.62s-.22.31-.42.41l.67,1.88h-.66l-.58-1.76h-.37v1.76h-.62ZM42.9,29.09v1.29h.35c.11,0,.2-.01.26-.04.07-.03.12-.07.15-.12.03-.05.05-.12.07-.2.01-.08.02-.17.02-.28s0-.2-.02-.28c-.01-.08-.04-.15-.07-.21-.08-.11-.22-.16-.44-.16h-.32Z"/>
        <path d="M44.83,29.5c0-.17.03-.31.09-.44.06-.13.14-.23.24-.32.1-.08.21-.14.33-.19s.25-.06.37-.06.25.02.38.06.24.1.34.19c.1.08.18.19.24.32.06.13.09.27.09.44v2.18c0,.17-.03.32-.09.45-.06.12-.14.23-.24.31-.1.08-.21.15-.34.19-.12.04-.25.06-.38.06s-.25-.02-.37-.06c-.12-.04-.23-.11-.33-.19-.1-.08-.18-.18-.24-.31-.06-.12-.09-.27-.09-.45v-2.18ZM45.46,31.69c0,.14.04.25.12.32s.18.1.29.1.21-.03.3-.1c.08-.07.12-.17.12-.32v-2.18c0-.14-.04-.25-.12-.32-.08-.07-.18-.1-.3-.1s-.21.03-.29.1c-.08.07-.12.17-.12.32v2.18Z"/>
        <path d="M47.46,32.66v-4.13h.91c.2,0,.37.03.51.09.14.06.25.14.34.23.09.1.15.21.19.33.04.12.06.26.06.39v.15c0,.11,0,.21-.03.28-.02.08-.05.14-.08.2-.07.11-.17.2-.32.28.15.07.25.16.32.29.07.13.1.3.1.52v.23c0,.36-.09.64-.28.83-.19.19-.48.29-.89.29h-.85ZM48.08,29.09v1.14h.28c.21,0,.35-.05.42-.15.07-.1.11-.24.11-.43s-.04-.33-.12-.42-.22-.14-.43-.14h-.26ZM48.08,30.75v1.32h.27c.13,0,.22-.02.29-.05.07-.04.12-.08.16-.15.04-.06.06-.13.07-.22s.01-.18.01-.28,0-.19-.02-.27c-.01-.08-.04-.14-.07-.2-.04-.05-.1-.09-.16-.12-.07-.03-.16-.04-.27-.04h-.27Z"/>
        <path d="M50.02,29.5c0-.17.03-.31.09-.44.06-.13.14-.23.24-.32.1-.08.21-.14.33-.19s.25-.06.37-.06.25.02.38.06.24.1.34.19c.1.08.18.19.24.32.06.13.09.27.09.44v2.18c0,.17-.03.32-.09.45-.06.12-.14.23-.24.31-.1.08-.21.15-.34.19-.12.04-.25.06-.38.06s-.25-.02-.37-.06c-.12-.04-.23-.11-.33-.19-.1-.08-.18-.18-.24-.31-.06-.12-.09-.27-.09-.45v-2.18ZM50.64,31.69c0,.14.04.25.12.32s.18.1.29.1.21-.03.3-.1c.08-.07.12-.17.12-.32v-2.18c0-.14-.04-.25-.12-.32-.08-.07-.18-.1-.3-.1s-.21.03-.29.1c-.08.07-.12.17-.12.32v2.18Z"/>
        <path d="M52.99,32.66v-3.57h-.72v-.56h2.06v.56h-.72v3.57h-.62Z"/>
        <path d="M54.62,32.66v-4.13h.62v4.13h-.62Z"/>
        <path d="M57.82,31.48v.26c0,.13-.03.25-.08.36s-.12.22-.21.3c-.09.09-.19.16-.31.21-.12.05-.25.08-.39.08-.12,0-.24-.02-.36-.05-.12-.03-.23-.08-.33-.16s-.18-.18-.24-.3c-.06-.12-.09-.28-.09-.47v-2.27c0-.14.02-.26.07-.38.05-.12.12-.22.21-.3.09-.08.2-.15.32-.2s.26-.07.41-.07c.29,0,.53.09.71.27.09.09.16.19.21.32.05.12.08.25.08.4v.23h-.62v-.2c0-.12-.04-.22-.1-.3-.07-.08-.16-.13-.28-.13-.15,0-.26.04-.31.14s-.08.21-.08.34v2.11c0,.12.03.22.08.3s.15.12.3.12c.04,0,.08,0,.13-.02.05-.01.09-.04.13-.07.04-.03.07-.07.09-.13.02-.05.04-.12.04-.2v-.2h.62Z"/>
        <path d="M60.33,29.72h-.62v-.13c0-.13-.03-.25-.1-.35-.07-.1-.18-.15-.34-.15-.08,0-.15.02-.21.05s-.1.07-.13.12c-.03.05-.05.11-.07.17-.01.06-.02.13-.02.2,0,.08,0,.15,0,.2,0,.05.02.1.05.14s.06.08.11.11c.05.03.11.06.19.09l.47.18c.14.05.25.11.33.18.08.07.15.15.2.23.04.09.08.2.09.32.02.12.02.25.02.4,0,.17-.02.34-.05.48-.04.15-.1.28-.18.38-.08.11-.2.19-.33.26-.14.06-.31.09-.5.09-.15,0-.29-.03-.42-.08-.13-.05-.24-.12-.33-.21-.09-.09-.17-.19-.22-.31s-.08-.25-.08-.39v-.22h.62v.19c0,.11.03.21.1.29.07.09.18.13.34.13.11,0,.19-.01.25-.04.06-.03.1-.07.14-.12.03-.05.05-.12.06-.19,0-.08,0-.16,0-.25,0-.11,0-.2-.01-.27,0-.07-.02-.13-.05-.17-.03-.04-.07-.08-.11-.1-.05-.03-.11-.06-.19-.09l-.44-.17c-.27-.1-.45-.24-.54-.42-.09-.17-.14-.39-.14-.65,0-.15.02-.3.07-.44.04-.14.11-.26.2-.36.08-.1.19-.18.33-.24.13-.06.29-.09.47-.09.15,0,.3.03.42.08.13.05.24.13.33.21.19.19.28.4.28.64v.29Z"/>
        <path d="M63.79,32.66l-.21-.31c-.12.12-.25.2-.38.26-.13.06-.28.09-.45.09-.12,0-.24-.02-.35-.07-.11-.05-.21-.11-.29-.2-.08-.08-.15-.18-.19-.3-.05-.12-.07-.25-.07-.39,0-.23.06-.43.17-.6s.26-.33.43-.48c-.11-.15-.2-.3-.27-.46-.07-.16-.11-.32-.11-.5,0-.11.02-.21.05-.31.04-.1.09-.18.16-.26.07-.07.16-.13.26-.17.11-.04.23-.06.37-.06.13,0,.25.02.35.06.1.04.19.09.25.16.14.14.21.32.21.53,0,.2-.06.38-.19.56s-.27.33-.44.48c.04.05.08.12.12.19.04.07.09.14.14.22.1.17.2.32.3.46l.33-.43.38.25-.46.57.47.71h-.62ZM62.4,31.71c0,.14.04.27.13.37.09.1.2.15.33.15.09,0,.18-.03.27-.08.08-.06.15-.11.2-.17l-.6-.9c-.09.09-.17.18-.24.29-.06.1-.09.22-.09.34ZM62.62,29.73c0,.09.02.18.07.29s.1.21.17.31c.04-.03.08-.07.12-.12.04-.04.08-.09.12-.15.04-.05.07-.11.09-.18.02-.06.04-.13.04-.21s-.03-.14-.08-.2c-.05-.06-.13-.09-.22-.09s-.17.04-.22.11c-.06.07-.09.15-.09.24Z"/>
        <path d="M65.71,32.66l.97-4.13h.52l.97,4.13h-.62l-.18-.89h-.85l-.18.89h-.62ZM67.24,31.22l-.3-1.5h-.01l-.3,1.5h.62Z"/>
        <path d="M68.47,32.66v-4.13h.93c.17,0,.32.02.45.06.13.04.25.12.35.23.11.11.18.24.22.38.04.14.06.34.06.59,0,.19-.01.34-.03.47s-.07.25-.14.36c-.09.13-.2.24-.34.32-.14.08-.33.11-.56.11h-.32v1.61h-.62ZM69.09,29.09v1.4h.3c.13,0,.22-.02.29-.05.07-.04.12-.08.15-.15.03-.06.05-.13.06-.21,0-.08,0-.18,0-.28,0-.1,0-.19,0-.28,0-.09-.02-.16-.06-.23-.03-.07-.08-.12-.15-.15-.07-.03-.16-.05-.28-.05h-.32Z"/>
        <path d="M70.95,32.66v-4.13h.93c.17,0,.32.02.45.06.13.04.25.12.35.23.11.11.18.24.22.38.04.14.06.34.06.59,0,.19-.01.34-.03.47s-.07.25-.14.36c-.09.13-.2.24-.34.32-.14.08-.33.11-.56.11h-.32v1.61h-.62ZM71.57,29.09v1.4h.3c.13,0,.22-.02.29-.05.07-.04.12-.08.15-.15.03-.06.05-.13.06-.21,0-.08,0-.18,0-.28,0-.1,0-.19,0-.28,0-.09-.02-.16-.06-.23-.03-.07-.08-.12-.15-.15-.07-.03-.16-.05-.28-.05h-.32Z"/>
        <path d="M73.43,32.66v-4.13h.62v3.54h1.23v.59h-1.85Z"/>
        <path d="M75.7,32.66v-4.13h.62v4.13h-.62Z"/>
        <path d="M78.89,31.48v.26c0,.13-.03.25-.08.36s-.12.22-.21.3c-.09.09-.19.16-.31.21-.12.05-.25.08-.39.08-.12,0-.24-.02-.36-.05-.12-.03-.23-.08-.33-.16s-.18-.18-.24-.3c-.06-.12-.09-.28-.09-.47v-2.27c0-.14.02-.26.07-.38.05-.12.12-.22.21-.3.09-.08.2-.15.32-.2s.26-.07.41-.07c.29,0,.53.09.71.27.09.09.16.19.21.32.05.12.08.25.08.4v.23h-.62v-.2c0-.12-.04-.22-.1-.3-.07-.08-.16-.13-.28-.13-.15,0-.26.04-.31.14s-.08.21-.08.34v2.11c0,.12.03.22.08.3s.15.12.3.12c.04,0,.08,0,.13-.02.05-.01.09-.04.13-.07.04-.03.07-.07.09-.13.02-.05.04-.12.04-.2v-.2h.62Z"/>
        <path d="M79.12,32.66l.97-4.13h.52l.97,4.13h-.62l-.18-.89h-.85l-.18.89h-.62ZM80.65,31.22l-.3-1.5h-.01l-.3,1.5h.62Z"/>
        <path d="M81.95,32.66v-3.57h-.72v-.56h2.06v.56h-.72v3.57h-.62Z"/>
        <path d="M83.58,32.66v-4.13h.62v4.13h-.62Z"/>
        <path d="M84.77,29.5c0-.17.03-.31.09-.44.06-.13.14-.23.24-.32.1-.08.21-.14.33-.19s.25-.06.37-.06.25.02.38.06.24.1.34.19c.1.08.18.19.24.32.06.13.09.27.09.44v2.18c0,.17-.03.32-.09.45-.06.12-.14.23-.24.31-.1.08-.21.15-.34.19-.12.04-.25.06-.38.06s-.25-.02-.37-.06c-.12-.04-.23-.11-.33-.19-.1-.08-.18-.18-.24-.31-.06-.12-.09-.27-.09-.45v-2.18ZM85.39,31.69c0,.14.04.25.12.32s.18.1.29.1.21-.03.3-.1c.08-.07.12-.17.12-.32v-2.18c0-.14-.04-.25-.12-.32-.08-.07-.18-.1-.3-.1s-.21.03-.29.1c-.08.07-.12.17-.12.32v2.18Z"/>
        <path d="M87.38,32.66v-4.13h.6l.94,2.49h.01v-2.49h.62v4.13h-.58l-.95-2.48h-.01v2.48h-.62Z"/>
        <path d="M92.12,29.72h-.62v-.13c0-.13-.03-.25-.1-.35-.07-.1-.18-.15-.34-.15-.08,0-.15.02-.21.05s-.1.07-.13.12c-.03.05-.05.11-.07.17-.01.06-.02.13-.02.2,0,.08,0,.15,0,.2,0,.05.02.1.05.14s.06.08.11.11c.05.03.11.06.19.09l.47.18c.14.05.25.11.33.18.08.07.15.15.2.23.04.09.08.2.09.32.02.12.02.25.02.4,0,.17-.02.34-.05.48-.04.15-.1.28-.18.38-.08.11-.2.19-.33.26-.14.06-.31.09-.5.09-.15,0-.29-.03-.42-.08-.13-.05-.24-.12-.33-.21-.09-.09-.17-.19-.22-.31s-.08-.25-.08-.39v-.22h.62v.19c0,.11.03.21.1.29.07.09.18.13.34.13.11,0,.19-.01.25-.04.06-.03.1-.07.14-.12.03-.05.05-.12.06-.19,0-.08,0-.16,0-.25,0-.11,0-.2-.01-.27,0-.07-.02-.13-.05-.17-.03-.04-.07-.08-.11-.1-.05-.03-.11-.06-.19-.09l-.44-.17c-.27-.1-.45-.24-.54-.42-.09-.17-.14-.39-.14-.65,0-.15.02-.3.07-.44.04-.14.11-.26.2-.36.08-.1.19-.18.33-.24.13-.06.29-.09.47-.09.15,0,.3.03.42.08.13.05.24.13.33.21.19.19.28.4.28.64v.29Z"/>
      </g>
    </g>
  </g>
  <g>
    <path class="st2" d="M56.54,9.21l-4,17.31h-3.49L55.18,0h2.7l6.19,26.53h-3.53l-4-17.31h0Z"/>
    <path class="st2" d="M64.79-.04h3.38v19.47c0,1.84.4,2.77.94,3.2.54.47,1.15.47,1.62.47s1.08,0,1.62-.47c.54-.43.94-1.37.94-3.2V-.04h3.38v19.47c0,2.2-.47,3.89-1.44,5.08-.72.97-2.09,1.98-4.5,1.98s-3.78-1.01-4.5-1.98c-.97-1.19-1.44-2.88-1.44-5.08V-.04Z"/>
    <path class="st2" d="M91.68,26.49h-3.42v-5.29c0-2.34-1.12-5.25-3.39-5.25l-2.12-.04v10.58h-3.38V-.04h5.51c5.62,0,6.73,2.04,6.73,10.12,0,2.45-.91,3.45-1.41,4.08-.16.2-.46.54-.53.58,1.3,1.26,2.02,4.27,2.02,6.46v5.29s-.01,0-.01,0ZM82.75,13.31h2.12c.9,0,1.55-.11,1.91-.32.32-.22.54-.4.65-.5.54-.68.79-2.06.79-3.64,0-3.48,0-3.74-.83-4.73-.52-.63-1.4-.72-2.52-.72h-2.12v9.93s0-.02,0-.02Z"/>
    <path class="st2" d="M101.87,9.21l-4,17.31h-3.49L100.5,0h2.7l6.19,26.53h-3.53l-4-17.31h.01Z"/>
  </g>
  <g class="st4">
    <g>
      <path class="st3" d="M56.54,9.21l-4,17.31h-3.49L55.18,0h2.7l6.19,26.53h-3.53l-4-17.31h0Z"/>
      <path class="st3" d="M64.79-.04h3.38v19.47c0,1.84.4,2.77.94,3.2.54.47,1.15.47,1.62.47s1.08,0,1.62-.47c.54-.43.94-1.37.94-3.2V-.04h3.38v19.47c0,2.2-.47,3.89-1.44,5.08-.72.97-2.09,1.98-4.5,1.98s-3.78-1.01-4.5-1.98c-.97-1.19-1.44-2.88-1.44-5.08V-.04Z"/>
      <path class="st3" d="M91.68,26.49h-3.42v-5.29c0-2.34-1.12-5.25-3.39-5.25l-2.12-.04v10.58h-3.38V-.04h5.51c4.57,0,6.73,2.04,6.73,10.12,0,2.45-.54,3.04-1.58,4.3-.04.04-.11.11-.14.18-.07.07-.14.14-.22.18,1.3,1.26,2.02,4.27,2.02,6.46v5.29s-.01,0-.01,0ZM82.75,13.31h2.12c.9,0,1.55-.11,1.91-.32.32-.22.54-.4.65-.5.54-.68.79-2.06.79-3.64,0-3.48-.2-3.7-.83-4.73-.42-.7-1.4-.72-2.52-.72h-2.12v9.93s0-.02,0-.02Z"/>
      <path class="st3" d="M101.87,9.21l-4,17.31h-3.49L100.5,0h2.7l6.19,26.53h-3.53l-4-17.31h.01Z"/>
    </g>
  </g>
</svg>